# xmcd
#
# Track frame offsets:
# 150
# 18947
# 34707
# 48959
# 66979
# 80931
# 95124
# 112608
# 132764
# 153773
#
# Disc length: 2306 seconds
#
#
# Revision: 0
# Processed by: cddbd v1.5.2PL0 Copyright (c) Steve Scherf et al.
# Submitted via: FreeRIP 2.95 
#
DISCID=7709000a
DTITLE=Leon Joplin - The Meaning Of Life
DYEAR=1900
DGENRE=Country
TTITLE0=Holy Spirit Light Divine
TTITLE1=The Meaning Of Life
TTITLE2=I'm Free
TTITLE3=God's Love
TTITLE4=There's A Spirit Burning
TTITLE5=When The Saints Go Marching In
TTITLE6=They'll Never Take Jesus
TTITLE7=From A Wooden Manger
TTITLE8=We Will Dance
TTITLE9=Two Angels
EXTD=
EXTT0=
EXTT1=
EXTT2=
EXTT3=
EXTT4=
EXTT5=
EXTT6=
EXTT7=
EXTT8=
EXTT9=
PLAYORDER=
